Coordinates
version=1
nRows=13
nColumns=40
inDegrees=yes

Units are S.I. units (second, meters, Newtons, ...)
If the header above contains a line with 'inDegrees', this indicates whether rotational values are in degrees (yes) or radians (no).

endheader
time	pelvis_tilt	pelvis_list	pelvis_rotation	pelvis_tx	pelvis_ty	pelvis_tz	hip_flexion_r	hip_adduction_r	hip_rotation_r	knee_angle_r	knee_angle_r_beta	ankle_angle_r	subtalar_angle_r	mtp_angle_r	hip_flexion_l	hip_adduction_l	hip_rotation_l	knee_angle_l	knee_angle_l_beta	ankle_angle_l	subtalar_angle_l	mtp_angle_l	lumbar_extension	lumbar_bending	lumbar_rotation	arm_flex_r	arm_add_r	arm_rot_r	elbow_flex_r	pro_sup_r	wrist_flex_r	wrist_dev_r	arm_flex_l	arm_add_l	arm_rot_l	elbow_flex_l	pro_sup_l	wrist_flex_l	wrist_dev_l
      0.17500000	     -1.40120947	      7.44797315	      5.96280047	     -0.48553671	      0.89822244	      0.23033320	     29.35623362	    -13.47013964	    -18.06107851	      9.99236498	      0.17439967	     -0.16283410	      6.74098689	      0.00000000	    -20.46243134	      3.43566900	    -16.51554883	     11.80096986	      0.20596578	      2.78695486	     15.27095906	      0.00000000	     -2.34481954	     -4.75631355	      0.27706264	     43.81862886	    -16.84033977	     43.81862886	     74.93165362	     44.92914895	      0.00000000	      0.00000000	     43.81862886	    -16.84033977	     43.81862886	     74.93165362	     44.92914895	      0.00000000	      0.00000000
      0.18000000	     -1.27017417	      7.18014369	      6.04153343	     -0.47754996	      0.89803175	      0.23070505	     29.14131797	    -13.23182327	    -17.98401543	     10.67123169	      0.18624813	     -0.58000609	      6.07497763	      0.00000000	    -20.80535770	      2.94661531	    -16.52076285	     12.20495925	      0.21301672	      1.94252151	     14.94231996	      0.00000000	     -2.38698842	     -4.35112603	     -0.02553669	     43.81962500	    -16.83777475	     43.81962500	     74.93184060	     44.92968456	      0.00000000	      0.00000000	     43.81962500	    -16.83777475	     43.81962500	     74.93184060	     44.92968456	      0.00000000	      0.00000000
      0.18500000	     -0.82958355	      6.46958512	      6.29547926	     -0.46954628	      0.89864959	      0.23062377	     28.25187714	    -12.53626578	    -18.23797658	     10.80293350	      0.18854676	     -1.47203850	      5.19412074	      0.00000000	    -21.38121881	      1.90709279	    -16.43223812	     12.69475702	      0.22156531	      1.15848027	     14.48958510	      0.00000000	     -2.76039892	     -3.54228404	     -0.95789199	     43.82452849	    -16.82516842	     43.82452849	     74.93275599	     44.93226954	      0.00000000	      0.00000000	     43.82452849	    -16.82516842	     43.82452849	     74.93275599	     44.93226954	      0.00000000	      0.00000000
      0.19000000	     -0.67440740	      6.20730760	      6.27730334	     -0.46146665	      0.89865281	      0.23113555	     28.04879368	    -12.28398920	    -18.14286149	     11.56746646	      0.20189038	     -1.95924286	      4.66549321	      0.00000000	    -21.67957725	      1.44548619	    -16.57626772	     13.18997957	      0.23020857	      0.09954223	     14.04613821	      0.00000000	     -2.81148075	     -3.12576689	     -1.22695697	     43.82511674	    -16.82365856	     43.82511674	     74.93286521	     44.93257379	      0.00000000	      0.00000000	     43.82511674	    -16.82365856	     43.82511674	     74.93286521	     44.93257379	      0.00000000	      0.00000000
      0.19500000	     -0.46751669	      5.85939323	      6.24023259	     -0.45337874	      0.89881600	      0.23175173	     27.78912317	    -11.93299521	    -18.14248582	     12.34007122	      0.21537487	     -2.53029800	      4.04800696	      0.00000000	    -21.96992406	      0.88668128	    -16.72331324	     13.77998084	      0.24050604	     -0.98146438	     13.42044110	      0.00000000	     -2.89911822	     -2.66520102	     -1.53091245	     43.82568759	    -16.82219381	     43.82568759	     74.93297108	     44.93286789	      0.00000000	      0.00000000	     43.82568759	    -16.82219381	     43.82568759	     74.93297108	     44.93286789	      0.00000000	      0.00000000
      0.20000000	     -0.24340877	      5.45654458	      6.20867287	     -0.44530145	      0.89914112	      0.23240074	     27.48042147	    -11.52375308	    -18.14132862	     13.08087913	      0.22830441	     -3.12787533	      3.45479388	      0.00000000	    -22.22441968	      0.26453123	    -16.87298264	     14.43531114	      0.25194371	     -2.10829540	     12.69753414	      0.00000000	     -3.03011499	     -2.16022152	     -1.86377442	     43.82623781	    -16.82078249	     43.82623781	     74.93307301	     44.93315022	      0.00000000	      0.00000000	     43.82623781	    -16.82078249	     43.82623781	     74.93307301	     44.93315022	      0.00000000	      0.00000000
      0.20500000	      0.12444359	      4.76977530	      6.32141148	     -0.43721885	      0.89987395	      0.23246201	     26.85551060	    -10.86799098	    -18.38515689	     13.56976501	      0.23683708	     -3.94180388	      2.58544473	      0.00000000	    -22.49848795	     -0.70547323	    -16.99540235	     15.30649598	      0.26714875	     -3.13534923	     11.66999952	      0.00000000	     -3.27538129	     -1.20256221	     -2.53481309	     43.82776038	    -16.81687900	     43.82776038	     74.93335456	     44.93392621	      0.00000000	      0.00000000	     43.82776038	    -16.81687900	     43.82776038	     74.93335456	     44.93392621	      0.00000000	      0.00000000
      0.21000000	      0.41724026	      4.29192920	      6.17810419	     -0.42912924	      0.90051942	      0.23348919	     26.44337541	    -10.30391071	    -18.36451150	     14.19959947	      0.24782976	     -4.51745643	      2.16958264	      0.00000000	    -22.72838084	     -1.40168989	    -17.19708369	     16.10808938	      0.28113920	     -4.45693562	     10.94533777	      0.00000000	     -3.46789232	     -0.72487648	     -2.88486481	     43.82850589	    -16.81496895	     43.82850589	     74.93349211	     44.93430325	      0.00000000	      0.00000000	     43.82850589	    -16.81496895	     43.82850589	     74.93349211	     44.93430325	      0.00000000	      0.00000000
      0.21500000	      1.03757795	      3.09767297	      6.37860148	     -0.42094610	      0.90191491	      0.23335585	     25.24776743	     -9.02742760	    -18.76695749	     14.08991420	      0.24591539	     -5.58806671	      1.31285218	      0.00000000	    -23.06388534	     -3.04764399	    -17.66984350	     17.31392474	      0.30218499	     -5.43793741	     10.29257220	      0.00000000	     -3.94570095	      0.66247953	     -4.03361567	     43.83335600	    -16.80256105	     43.83335600	     74.93438242	     44.93671086	      0.00000000	      0.00000000	     43.83335600	    -16.80256105	     43.83335600	     74.93438242	     44.93671086	      0.00000000	      0.00000000
      0.22000000	      1.26369726	      2.58834280	      6.19697528	     -0.41285246	      0.90255025	      0.23434141	     24.95951239	     -8.43969062	    -18.69258023	     14.81837361	      0.25862941	     -6.03588233	      0.80396692	      0.00000000	    -23.06241915	     -3.78099949	    -18.00264306	     18.43438383	      0.32174069	     -6.81670561	      9.21538477	      0.00000000	     -4.05496427	      1.24024796	     -4.34507773	     43.83509060	    -16.79813188	     43.83509060	     74.93469878	     44.93755234	      0.00000000	      0.00000000	     43.83509060	    -16.79813188	     43.83509060	     74.93469878	     44.93755234	      0.00000000	      0.00000000
      0.22500000	      1.55633412	      2.12491274	      5.94908838	     -0.40476857	      0.90335726	      0.23555308	     24.60410215	     -7.85717791	    -18.54664138	     15.56793522	      0.27171173	     -6.37242527	      0.33363941	      0.00000000	    -23.09970207	     -4.47606912	    -18.45637884	     19.58578709	      0.34183647	     -8.39082896	      8.08868598	      0.00000000	     -4.22695655	      1.70993683	     -4.57130028	     43.83601718	    -16.79576771	     43.83601718	     74.93486734	     44.93799781	      0.00000000	      0.00000000	     43.83601718	    -16.79576771	     43.83601718	     74.93486734	     44.93799781	      0.00000000	      0.00000000
      0.23000000	      1.82910898	      1.57943743	      5.72460873	     -0.39668228	      0.90418046	      0.23674081	     24.22506856	     -7.17325716	    -18.38512357	     16.24263540	      0.28348747	     -6.68067328	     -0.26697055	      0.00000000	    -23.00002671	     -5.30708723	    -18.99998603	     20.97107320	      0.36601428	     -9.96229115	      6.72236206	      0.00000000	     -4.35193043	      2.26414543	     -4.78677428	     43.83698912	    -16.79328912	     43.83698912	     74.93504383	     44.93846206	      0.00000000	      0.00000000	     43.83698912	    -16.79328912	     43.83698912	     74.93504383	     44.93846206	      0.00000000	      0.00000000
      0.23500000	      2.08425062	      0.43971958	      5.50590703	     -0.38856892	      0.90496181	      0.23780302	     23.58759773	     -5.68319038	    -18.00511348	     16.19628038	      0.28267842	     -7.46521081	     -1.45107881	      0.00000000	    -22.68583981	     -6.91435253	    -20.00688669	     22.86773785	      0.39911732	    -10.99701104	      6.17503667	      0.00000000	     -4.42523998	      3.61746441	     -5.15404737	     43.84291701	    -16.77820073	     43.84291701	     74.93611323	     44.94122765	      0.00000000	      0.00000000	     43.84291701	    -16.77820073	     43.84291701	     74.93611323	     44.94122765	      0.00000000	      0.00000000
